<svg width="21" height="19" viewBox="0 0 21 19" fill="none" xmlns="http://www.w3.org/2000/svg">
<path d="M10.5 0.983887C7.15118 0.983887 2.80466 1.82295 2.80466 1.82295L2.79373 1.83545C1.26851 2.07938 0.0999756 3.38999 0.0999756 4.98389V9.78389V9.78545V14.5839V14.5855C0.101464 15.3467 0.374272 16.0824 0.869414 16.6606C1.36456 17.2388 2.0496 17.6216 2.80154 17.7401L2.80466 17.7448C2.80466 17.7448 7.15118 18.5855 10.5 18.5855C13.8488 18.5855 18.1953 17.7448 18.1953 17.7448L18.1968 17.7433C18.9496 17.6249 19.6354 17.2419 20.131 16.663C20.6265 16.0841 20.8992 15.3474 20.9 14.5855V14.5839V9.78545V9.78389V4.98389C20.8989 4.22239 20.6262 3.48625 20.131 2.90773C19.6359 2.32922 18.9506 1.94625 18.1984 1.82764L18.1953 1.82295C18.1953 1.82295 13.8488 0.983887 10.5 0.983887ZM8.09998 6.10264L14.5 9.78389L8.09998 13.4651V6.10264Z" fill="#333333"/>
</svg>
